<svg xmlns="http://www.w3.org/2000/svg" width="23" height="23">
    <path fill-rule="evenodd" d="M9.551.5c-1.219 0-2.391.242-3.516.726-1.11.469-2.062 1.102-2.859 1.899-.797.813-1.438 1.773-1.922 2.883C.785 7.117.551 8.281.551 9.5c0 1.219.234 2.383.703 3.492.484 1.11 1.125 2.071 1.922 2.883.797.797 1.749 1.438 2.859 1.922 1.125.469 2.297.703 3.516.703 1.047 0 2.047-.172 3-.516.953-.343 1.82-.828 2.601-1.453l5.672 5.672c.203.203.445.305.727.305.281 0 .515-.102.703-.305.187-.187.281-.422.281-.703 0-.281-.094-.516-.281-.703l-5.672-5.672c.625-.781 1.109-1.656 1.453-2.625.344-.953.516-1.953.516-3 0-1.219-.242-2.383-.727-3.492-.469-1.11-1.109-2.07-1.922-2.883-.797-.797-1.75-1.43-2.859-1.899C11.933.742 10.77.5 9.551.5zm0 1.992c.937 0 1.843.188 2.719.563.859.375 1.601.875 2.226 1.5s1.125 1.367 1.5 2.226c.359.859.539 1.766.539 2.719 0 .953-.18 1.859-.539 2.719-.375.859-.875 1.602-1.5 2.226-.625.625-1.367 1.125-2.226 1.501-.876.374-1.782.562-2.719.562-.953 0-1.86-.188-2.719-.562-.875-.376-1.625-.876-2.25-1.501-.625-.624-1.117-1.367-1.476-2.226-.376-.86-.563-1.766-.563-2.719 0-.953.187-1.86.563-2.719.359-.859.851-1.601 1.476-2.226s1.375-1.125 2.25-1.5c.859-.375 1.766-.563 2.719-.563z"/>
</svg>
